<svg width="151" height="157" viewBox="0 0 151 157" fill="none" xmlns="http://www.w3.org/2000/svg">
<path d="M111.455 38.6956C112.623 28.6376 105.671 20.4915 99.6726 15.3534C94.8395 11.2136 89.5672 6.73896 83.815 5.07066C79.5296 3.82779 75.043 2.63386 70.6495 2.29407C61.8439 1.61304 53.4262 1.95404 44.8901 5.04712C39.5813 6.9708 34.4502 9.52386 29.6594 13.0475C21.5738 18.9944 13.0334 26.5918 8.47291 37.2838C3.40155 49.1735 2.48953 62.6484 2.07455 75.9207C1.73913 86.6484 2.54804 97.0819 4.25036 107.593C5.26651 113.867 6.21507 120.062 8.63886 125.711C10.8811 130.937 13.3578 135.7 17.084 139.406C21.2318 143.531 25.9782 145.64 30.9501 147.641C49.2149 154.994 67.9499 156.639 86.8205 152.3C91.2333 151.286 94.7354 149.237 98.7691 147.077C102.187 145.246 105.659 143.351 108.56 140.347C113.326 135.411 115.656 128.7 117.724 121.523C119.685 114.721 119.753 107.584 119.753 100.439C119.753 98.1212 119.747 95.7644 119.421 93.4744C119.291 92.5639 118.131 92.766 117.577 92.6744C107.627 91.0284 97.6146 90.1115 87.6687 88.4389C82.2681 87.5307 76.5574 86.5565 71.1104 86.5565C68.7501 86.5565 66.3812 86.1329 63.993 86.1329" stroke="black" stroke-width="4" stroke-linecap="round"/>
<path d="M110.459 40.8133C108.317 32.4393 98.5701 28.9759 92.6104 33.0954C87.6027 36.5569 82.7744 41.7279 80.1456 48.4372C78.9436 51.5049 78.9432 56.178 79.3343 59.4494C79.822 63.5297 81.5501 65.8764 83.649 68.7675C86.5488 72.7616 91.3216 74.8447 95.1919 76.7443C98.0886 78.166 101.543 78.3693 103.785 75.3795C108.16 69.5421 111.111 63.6224 112.377 55.5434C112.904 52.1835 114.288 47.3595 113.115 43.9899C112.547 42.3596 109.796 41.1477 109.796 39.5427" stroke="black" stroke-width="4" stroke-linecap="round"/>
<path d="M82.5796 44.2017C80.6874 33.819 72.9196 32.5556 65.7078 33.213C57.3377 33.976 54.6997 43.8597 54.6997 53.0021C54.6997 57.4862 55.5096 60.2716 58.4612 63.0966C61.4065 65.9155 64.7869 66.4063 68.068 68.3204C69.5023 69.1571 70.5578 69.191 72.1062 69.191C75.0874 69.191 78.3568 65.027 79.2605 61.5671" stroke="black" stroke-width="4" stroke-linecap="round"/>
<path d="M93.8643 50.5549C93.6056 50.995 90.0407 57.3317 92.5367 57.3317C94.6238 57.3317 96.3439 53.1768 97.1095 50.9785C97.3276 50.3524 95.9353 51.9661 95.7819 52.7668C95.692 53.2364 95.3922 56.3748 95.5975 54.508C95.7257 53.3428 96.4156 47.5441 94.5281 50.5549" stroke="black" stroke-width="4" stroke-linecap="round"/>
<path d="M71.6268 46.743C69.739 47.233 68.1943 48.2334 67.3858 50.5549C66.933 51.855 67.9762 52.2491 68.7871 52.2491C69.8276 52.2491 71.7616 45.0488 69.1375 45.0488C67.5947 45.0488 67.5017 49.3233 68.7134 48.7666C70.2142 48.0772 69.8143 45.0155 69.6353 45.4724" stroke="black" stroke-width="4" stroke-linecap="round"/>
<path d="M117.098 125.099C121.211 120.923 125.454 117.413 128.696 111.969C133.371 104.119 138.124 96.5856 140.404 86.8859C142.715 77.0561 144.188 66.5759 142.968 56.3199C142.614 53.3492 142.725 49.9779 141.99 47.1666" stroke="black" stroke-width="4" stroke-linecap="round"/>
<path d="M127.387 37.8485C132.473 37.8485 135.141 44.8874 139.593 47.0724C139.901 47.2235 140.688 47.9982 140.829 47.496C141.218 46.1061 140.995 44.2918 140.995 42.837C140.995 39.8782 140.79 37.7602 139.833 35.0719C139.053 32.8834 139.642 36.0216 139.814 37.0955C140.197 39.4775 140.565 41.7362 140.829 44.1547C140.905 44.8575 140.725 50.7962 141.824 50.4843C142.287 50.3533 142.772 47.9013 142.986 47.3548C143.73 45.4549 144.435 43.7352 145.272 41.8957C146.34 39.5485 148.96 36.8338 148.96 34.0366" stroke="black" stroke-width="4" stroke-linecap="round"/>
</svg>
